<svg version="1.2" xmlns="http://www.w3.org/2000/svg" viewBox="0 0 637 637" width="637" height="637">
	<title>logo-for-a-business-named--cleaninggr---the-main-f-svg</title>
	<defs>
		<linearGradient id="g1" x2="1" gradientUnits="userSpaceOnUse" gradientTransform="matrix(33.481,-32.656,105.367,108.03,254.163,380.856)">
			<stop offset="0" stop-color="#005b2a"/>
			<stop offset="1" stop-color="#069e4c"/>
		</linearGradient>
		<linearGradient id="g2" x2="1" gradientUnits="userSpaceOnUse" gradientTransform="matrix(100.501,7.641,-12.355,162.508,382.928,246.401)">
			<stop offset="0" stop-color="#45c047"/>
			<stop offset="1" stop-color="#79b7dc"/>
		</linearGradient>
		<linearGradient id="g3" x2="1" gradientUnits="userSpaceOnUse" gradientTransform="matrix(-80.058,-220.857,170.715,-61.882,348.513,323.732)">
			<stop offset="0" stop-color="#01306a"/>
			<stop offset="1" stop-color="#0689d8"/>
		</linearGradient>
		<linearGradient id="g4" x2="1" gradientUnits="userSpaceOnUse" gradientTransform="matrix(.781,-385.788,393.793,.797,318.26,502.345)">
			<stop offset="0" stop-color="#052c56"/>
			<stop offset="1" stop-color="#0799dc"/>
		</linearGradient>
	</defs>
	<style>
		tspan { white-space:pre } 
		.s0 { fill: url(#g1) } 
		.s1 { fill: #64be5a } 
		.s2 { fill: #fefefe } 
		.s3 { fill: #30b0dc } 
		.s4 { fill: #05904a } 
		.s5 { fill: url(#g2) } 
		.s6 { fill: #0a81b2 } 
		.s7 { fill: url(#g3) } 
		.s8 { fill: #50c3f7 } 
		.t9 { font-size: 48px;fill: #054879;font-weight: 400;font-family: "Nunito-Regular", "Nunito" } 
		.t10 { font-size: 48px;fill: #50c3f7;font-weight: 400;font-family: "Nunito-Regular", "Nunito" } 
		.s11 { fill: url(#g4) } 
	</style>
	<path id="Layer" class="s0" d="m194 324.5c1.7-0.1 3 0.4 4.6 0.7l11 2.6c11.2 2.7 22.3 5.6 32.9 10 9.1 3.7 17.7 9 25.8 14.5 4.9 3.3 9.8 6.6 14.3 10.4 9.7 8.1 17.3 17.3 24.3 27.8-2.2-8.8-6-17.8-9.8-26l-4.5-8.6c-1-1.8-3.8-5.2-3.8-7.1 3 2.4 5.6 5.5 8 8.5 13.2 16.8 18.3 39.1 20.5 60 0.4 3.3 0.3 6.6 0.5 9.9 0 0.8-0.1 2.5 0.3 3.3 0.5 0.8 0 2.6-0.1 3.6l-3.2-12.9c-1.6-5.8-4.2-11.9-7-17.3-14.4-27.5-39.4-50-67.6-62.9-13.1-6-27.2-10.2-41-14.5l-0.9-0.7-1.1 0.3c-1.1-0.2-2.2-1-3.2-1.6z"/>
	<path id="Layer" class="s1" d="m194 324.5l-5.9-3 27.8 1.9c13.8 1.3 27.2 3 40.5 7 4.5 1.3 8.9 2.6 13.1 4.6 4.7 2.2 8.9 5.1 13 8.3 1.9 1.5 4.5 3.2 6.1 5.1l0.2 0.4c0 1.9 2.8 5.3 3.8 7.1l4.5 8.6c3.8 8.2 7.6 17.2 9.8 26-7-10.5-14.6-19.7-24.3-27.8-4.5-3.8-9.4-7.1-14.3-10.4-8.1-5.5-16.7-10.8-25.8-14.5-10.6-4.4-21.7-7.3-32.9-10l-11-2.6c-1.6-0.3-2.9-0.8-4.6-0.7z"/>
	<path id="Layer" class="s2" d="m270 537.1l5.7 15.3-5.6 0.1h-6.2z"/>
	<path id="Layer" class="s2" d="m446.9 534.1c3.7 0 10.7-0.9 13.9 1.2 1.3 0.9 2.3 2.3 2.5 3.9 0.4 2.2-0.5 4.2-1.8 5.9-3.9 2.8-10 1.9-14.6 1.9z"/>
	<path id="Layer" class="s2" d="m498.3 534.5c4.1-0.1 10.8-1.1 14.2 1.3 1.3 1 2.3 2.4 2.5 4 0.3 2.4-0.5 4.3-1.9 6.2-3.5 2.7-10.5 1.8-14.8 1.7z"/>
	<path id="Layer" class="s3" d="m228 227.8c2.4-20.4 13.4-39.5 24-56.8l11.9-18.9 15.6-23.1 38.9-62.3c3.3 4.1 5.9 9.6 8.6 14.1-3.2 3.8-6.3 8.5-8.6 12.8l-0.2 0.1c-1.8 1.2-3.1 4.4-4.1 6.3l-6.9 13.3-5.1 9-30.5 47.8c-6.6 10.3-13.2 20.4-18.9 31.2-4.3 8.2-7.8 17-9.5 26.1l-0.9 5.6c-0.1-0.4-0.1-0.8-0.3-1.2l-0.1-0.4c0.3-0.6 0.3-0.8 0.3-1.4-0.1-0.8 0.3-0.7 0.4-1.2 0.2-0.9-0.3-0.9 0.2-1.8 0-0.6-0.1-0.6 0.1-1.1 0.4-0.8 0.3-0.5 0.2-1.3 0.4-0.6 0.5-1.2 0.6-1.9l-0.3-0.3c-1.2-1.2-2.2-1.5-4-1.7-0.4-0.1-0.9-0.1-1.3-0.3-0.6-0.3-0.2-0.2-0.8-0.3l-1.2-0.1c-2-0.3-3.9-0.3-5.8-0.3-1.1 2.6-0.8 5.5-2.2 7.9z"/>
	<path id="Layer" class="s4" d="m197.2 326.1l1.1-0.3 0.9 0.7c0.5 0.9 1 1 1.9 1.4 24.4 9.3 48.8 21.1 68.8 38.1l0.1 0.2c14 11 25.3 25.9 32.4 42.2 1.8 3.9 3 8 4.5 11.9-11.1 0-23.1 0.9-34.1-1.4-11.2-2.2-20-7.2-27.5-15.9-3.8-4.6-7.1-9.3-9.8-14.6-7-13.7-10.5-28.8-18.8-41.9-5.3-8.3-12.2-14-19.5-20.4z"/>
	<path id="Layer" class="s1" d="m201.1 327.9c24.4 9.3 48.8 21.1 68.8 38.1l0.1 0.2-0.5 0.2-6.1-4.8c-0.6-0.4-1.2-0.8-1.8-1.3l-1-0.8c-0.7-0.3-1 0.2-1.6 0.5l8.6 7.2 0.6 0.4c3.3 4.2 7.2 7.7 10.3 12 1 1.2 2.2 2.7 2.8 4.1 0.5 1 0.7 2.1 1.5 3 0.4 0.6 0.6 1.1 1 1.8 0.6 1 1.3 1.8 1.6 2.9-0.7 0-0.7-0.1-1.3-0.2-0.7-0.1-1.3-0.1-2-0.4l-0.5-0.3h-0.7c-0.4-0.1-0.6-0.2-1-0.3l-0.4-0.1c-0.6-0.2-0.3-0.2-0.9-0.2-0.6-0.1-1.2-0.1-1.9-0.3l-0.5-0.1-0.8-0.2c-8.4-2.5-16.4-4.8-24.5-8.3-7.8-3.5-14.2-6.9-18.3-14.8-4.2-8-8-15.9-13.8-23-2.9-3.6-6.3-6.9-10-9.7-2.4-1.8-5.9-3.1-7.7-5.6z"/>
	<path id="Layer" class="s5" d="m398.2 180.8c0-0.1-7.7-12.8-9.4-15.8 5.3 2.1 10 4.8 14.9 7.8 14.8 9 28 20.6 39.5 33.6 2.4 2.8 5.3 5.9 7.1 9.1 2.9 3.6 5.4 8 7.8 12.1 11.6 19.7 18.3 41 20.8 63.6l0.7 8.7c0.1 1.3 0.4 3 0.2 4.2l-0.1 0.3c-2.7 2.4-5.1 5.5-7.5 8.2-6.5 7.2-12.9 14.8-19.8 21.5 0.5-6.1 1.6-12.2 1.9-18.4 1.1-23.5-4.1-46.9-14.8-67.8l-6.4-11.4c-0.9-1.4-2-2.8-2.8-4.3l-0.3-0.5-10.4-13c-2.6-2.8-6.1-6-8.2-9.2-0.9-1.3-1.3-3.2-1.9-4.7l-3.9-9.2z"/>
	<path id="Layer" class="s1" d="m157.6 326.3c-2.9-25.4 1.3-51.2 10.8-74.9 4-10 8.7-19.5 14.5-28.7 12-18.8 28.6-35.4 47.2-47.6 5.9-3.9 11.9-7.6 18.4-10.3-3.5 4.5-6.2 9.4-8.9 14.4-3.5 6.4-6.9 12.9-9.8 19.5l-3.3 7.7c-0.6 1.6-1 3.7-1.9 5.1-1.3 2-3.6 3.8-5.2 5.7-3.7 4.2-7.3 8.5-10.6 13.1-10.4 14.7-18.4 31.9-22.4 49.4-3 13-4.1 25.9-4 39.2-2 3.1-3.9 6-7.8 6.8-2.1 0.5-4.6 0.4-6.8 0.4z"/>
	<path id="Layer" class="s3" d="m182.4 318.9c0.5 7.3 1.4 14.8 3.1 21.9 6.6 27.2 22.1 50.6 43.1 68.8 4.9 4.2 10.4 7.8 15.8 11.3 13.7 8.6 29.5 15.3 45.4 18.4 13.2 2.7 26.3 3.1 39.7 2.9-2.1 1.9-4.5 3.5-6.8 5.2l-14 9.9c-4.2 2.8-8.7 5.5-12.7 8.6-2.7 0-5.8-0.9-8.5-1.4-6-1-11.7-2.6-17.5-4.3-18.8-5.7-37.5-15-52.9-27.4-5.1-4-9.8-8.6-14.3-13.1-5.3-5.2-10.4-10.6-14.8-16.5-16.9-22.3-27.4-49.1-30.4-76.9l10.2-0.2c2.2 0 4.7 0.1 6.8-0.4 3.9-0.8 5.8-3.7 7.8-6.8z"/>
	<path id="Layer" class="s6" d="m452.4 334.1c6.9-6.7 13.3-14.3 19.8-21.5 2.4-2.7 4.8-5.8 7.5-8.2-0.2 12.5-1 25-3.5 37.3-4.8 23-15.3 45.7-30 64.1-5.1 6.5-10.9 12.5-16.8 18.2-9 8.7-19.8 16.2-30.7 22.3-4.2 2.4-8.5 4.8-12.9 6.8-20.8 9.4-44.6 14.6-67.4 14.2-7.2-0.1-15.3-0.1-22.4-1.4 4-3.1 8.5-5.8 12.7-8.6l14-9.9c2.3-1.7 4.7-3.3 6.8-5.2 4.5-0.7 9-1 13.5-1.9 18.1-3.4 34.6-10.6 50-20.5 7.4-4.7 14.4-10.5 20.6-16.6 19.7-19.1 32.9-42.3 38.8-69.1z"/>
	<path id="Layer" class="s4" d="m347 350.8c3.4-3.6 7.5-6.7 11.5-9.5 18.1-12.5 43.6-16.6 65.1-16.2 3.7 0 7.7-0.1 11.3 0.6l10.1-0.1c-17.2 7.7-28.2 23.5-34.8 40.5l-6.2 18.3c-4.9 13.6-13.8 24.2-27.1 30.2-15.3 6.8-31.8 5.8-48.1 5.7 5.1-15.2 14.2-29.8 25.3-41.4 5.7-6 12.1-11.4 18.6-16.4 2.9-2.8 6.9-5.2 10.2-7.4 14.3-9.7 31.2-20.5 48.3-24l0.7-0.6c-1.7 0-3.4 0.5-5 0.9l-9.7 2.5c-25.3 7.8-48.7 21.9-67.2 41-11.4 11.8-21.2 25.6-27 41-1.2 3.1-2.1 6.2-3 9.3-0.4 1.7-0.8 3.6-1.5 5.2 0.5-6.6 0.7-13.2 1.6-19.8 3-22.3 10.6-43.8 26.9-59.8z"/>
	<path id="Layer" class="s1" d="m347 350.8c3.4-3.6 7.5-6.7 11.5-9.5 18.1-12.5 43.6-16.6 65.1-16.2 3.7 0 7.7-0.1 11.3 0.6-2.3 0.9-5.2 1.1-7.7 1.7-4.4 1-8.8 2.2-13.1 3.7-21.4 7.4-43.7 17.4-60.9 32.4-5.8 4.9-11.1 10.8-15.8 16.7-2.5 3.1-4.5 6.4-6.8 9.6 0.3-1.5 0.6-2.7 1.2-4.1 2.9-6.9 5.1-13.8 8.5-20.5q1.9-3.8 4.2-7.2c0.9-1.5 3.1-3.8 3.4-5.5l-0.2-0.2c-0.3-0.5-0.5-1-0.7-1.5z"/>
	<path id="Layer" class="s1" d="m372.7 362.5c2.9-2.8 6.9-5.2 10.2-7.4 14.3-9.7 31.2-20.5 48.3-24-4.9 4.3-10 9-14 14.2-8.7 11.2-15.1 25.1-27.7 32.7-5.5 3.2-11.3 4.9-17.3 6.7l-7.5 2.3c-1.1 0.4-2.6 1.1-3.8 1.1l-0.3-0.1-0.3 0.3c-0.3 0.2-0.8 0.3-1.2 0.3l-0.3 0.4-0.5 0.1c-0.7 0.3-1.4 0.7-2.2 0.9-0.1-0.7 0.8-1.9 1.1-2.5 1.4-2.8 2.9-5.9 4.7-8.4l7.1-9 3.7-4.3c0.3-0.3 1.1-1.1 1.2-1.4 0.1-0.4 0.1-0.8 0.1-1.2l-0.4-0.7z"/>
	<path id="Layer" class="s7" d="m318.4 93.6c2.3-4.3 5.4-9 8.6-12.8l21.1 33.4c16.2 24.2 33.3 48.1 46.6 74 4.6 8.8 9.1 18.1 11.8 27.7 4.1 14 4.8 29.9 1.5 44.1-5.4 23.2-19.3 42.5-39.6 55-22.3 13.9-48.1 17.6-73.5 11.6-23.2-5.4-43.1-21-55.5-41.1-8.7-14.1-12.6-30-12.3-46.5 0.1-3.8 0.6-7.4 0.9-11.2l0.1-0.2c1.4-2.4 1.1-5.3 2.2-7.9 1.9 0 3.8 0 5.8 0.3l1.2 0.1c0.6 0.1 0.2 0 0.8 0.3 0.4 0.2 0.9 0.2 1.3 0.3 1.8 0.2 2.8 0.5 4 1.7l0.3 0.3c-0.1 0.7-0.2 1.3-0.6 1.9 0.1 0.8 0.2 0.5-0.2 1.3-0.2 0.5-0.1 0.5-0.1 1.1-0.5 0.9 0 0.9-0.2 1.8-0.1 0.5-0.5 0.4-0.4 1.2 0 0.6 0 0.8-0.3 1.4l0.1 0.4c0.2 0.4 0.2 0.8 0.3 1.2l0.9-5.6c1.7-9.1 5.2-17.9 9.5-26.1 5.7-10.8 12.3-20.9 18.9-31.2l30.5-47.8 5.1-9 6.9-13.3c1-1.9 2.3-5.1 4.1-6.3z"/>
	<path id="Layer" class="s8" d="m318.2 93.7l0.2-0.1c0.1 0.8 0 1 0.5 1.6 1.8 1.8 3.1 4.6 4.6 6.7l17.9 27.5 22.7 36c16.9 27.2 36.1 57.2 29.4 90.7-4 19.8-16.9 39.3-33.8 50.5-4 2.7-8.2 5-12.6 7-1.7 0.7-3.5 1.7-5.4 1.9 11.8-6.3 22.4-14.4 29.5-26 3.1-4.9 5.3-10.4 7-15.9 11.9-39.3-11.1-77.3-28.5-110.9l-13.5-28.8c-4.3 12.4-10.4 24.7-16.8 36.2-7.5 13.8-15.9 27.2-22.7 41.4-2.6 5.5-5.5 11.4-6.5 17.5-1.7 9.4 0.3 18.5 4.4 27 4.7 9.6 13.6 18.6 23.9 22 1.9 0.7 3.9 1.1 5.9 1.3l0.6 0.1c3.5 0.5 7.1 0.3 10.6-0.4 8.6-1.8 15.5-7.5 20.1-14.8 2.2-3.4 3.6-7 4.6-10.9 1.5 11.1 1.8 20.4-3.3 30.7-1 2-2.1 4.4-3.6 6.2l-0.1 0.1c-0.8 0.4-1.5 0.8-2.2 1.4-2-0.2-4.2 0.3-6.2 0.6l-9.1 1c-16 1.2-31-3.8-43.3-14.1-3.1-2.7-5.9-5.7-8.4-9-7.2-9.8-10.5-24.1-8.7-36.1 2.7-17.7 11.6-32.7 19.5-48.4 5.8-11.4 11.5-23.5 15.1-35.8l3.7-14.1c0.1-0.5 0.2-0.8 0.3-1.3 0.1-1.5 0.3-4.8-0.6-5.9l-0.2 0.8h-0.2l0.3-2.1h-0.4c1.9-7.9 3.4-15.6 4.4-23.7 0.3-3.3 0.8-6.6 0.9-9.9z"/>
	<text id="Cleaning.gr" style="transform: matrix(1.89,0,0,2.17,91,598)" >
		<tspan x="0" y="0" class="t9">C</tspan><tspan  y="0" class="t9">l</tspan><tspan  y="0" class="t9">e</tspan><tspan  y="0" class="t9">a</tspan><tspan  y="0" class="t9">n</tspan><tspan  y="0" class="t9">i</tspan><tspan  y="0" class="t9">n</tspan><tspan  y="0" class="t9">g</tspan><tspan  y="0" class="t10">.</tspan><tspan  y="0" class="t10">g</tspan><tspan  y="0" class="t10">r
</tspan>
	</text>
	<path id="Layer" class="s2" d="m318.2 93.7c-0.1 3.3-0.6 6.6-0.9 9.9-1 8.1-2.5 15.8-4.4 23.7h0.4l-0.3 2.1h0.2l0.2-0.8c0.9 1.1 0.7 4.4 0.6 5.9-0.1 0.5-0.2 0.8-0.3 1.3l-3.7 14.1c-3.6 12.3-9.3 24.4-15.1 35.8-7.9 15.7-16.8 30.7-19.5 48.4-1.8 12 1.5 26.3 8.7 36.1 2.5 3.3 5.3 6.3 8.4 9 12.3 10.3 27.3 15.3 43.3 14.1l9.1-1c2-0.3 4.2-0.8 6.2-0.6 0.7-0.6 1.4-1 2.2-1.4-1.6 2.3-3.4 4.3-5.4 6.1-11.4 10.5-26.8 15.9-42.2 15.2-16.8-0.7-33.9-9.7-45.1-22-10.3-11.3-16.5-26-18.2-41.2-0.5-5.1-0.3-10.2-0.1-15.4l0.9-5.6c1.7-9.1 5.2-17.9 9.5-26.1 5.7-10.8 12.3-20.9 18.9-31.2l30.5-47.8 5.1-9 6.9-13.3c1-1.9 2.3-5.1 4.1-6.3z"/>
	<path id="Layer" class="s3" d="m312.9 127.3h0.4l-0.3 2.1h0.2l0.2-0.8c0.9 1.1 0.7 4.4 0.6 5.9-0.1 0.5-0.2 0.8-0.3 1.3l-3.7 14.1c-3.6 12.3-9.3 24.4-15.1 35.8-7.9 15.7-16.8 30.7-19.5 48.4-1.8 12 1.5 26.3 8.7 36.1 2.5 3.3 5.3 6.3 8.4 9 12.3 10.3 27.3 15.3 43.3 14.1l9.1-1c2-0.3 4.2-0.8 6.2-0.6q-3.4 3.3-7.6 5.5c-11.1 6-26.5 7-38.5 3.3-14.9-4.5-28.5-14.9-35.7-28.7-5-9.5-7.8-21.1-6.5-31.8 1.2-9.6 5.2-19.1 9.2-27.8 6.3-14 13.9-27.2 21.2-40.7l7.2-14.5c4.8-9.8 9.3-19.2 12.5-29.7z"/>
	<path id="Layer" class="s11" d="m457.7 215c-1.1-1.2-2-2.8-3-4.1l-6-7.9c-7.1-8.7-15.5-16.8-24.4-23.7-8.8-6.9-18.2-12.9-28-18.2l-9.1-4.5c-1.3-0.6-3.5-1.3-4.5-2.3-1.2-1.3-2.2-3-3.3-4.5l-5.5-8.3-16.4-25.1c9.9 2.1 19.7 4.7 29.3 8.2 25 9.1 47.7 23.2 67.1 41.4 8.5 7.9 16.7 16.8 23.4 26.3 8.8 11.4 16 24.4 21.7 37.6 3.3 7.5 6.4 15.1 8.8 22.9 7.7 25.3 10.1 53.3 6.9 79.5-6.2 50-33.4 97.9-73.2 128.7-12 9.3-25.1 17.4-38.9 23.8-34.2 15.7-73.8 21.4-111.1 16.4-38.7-5.2-76.2-22.8-105.3-48.5-8.5-7.5-16.7-15.7-23.6-24.8-7.9-10.3-15-21.1-20.9-32.8-17.5-34.8-23.6-74.4-18.4-113 2.6-19.6 8.3-38.5 16.7-56.4 2-4.4 4.3-9.3 7-13.3 2.6-5.5 6.4-10.7 9.9-15.7 23.1-33.7 58-59.1 96.3-72.6l27.1-7.5-19.6 28.7-3.7 5.6c-0.7 1-1.3 2.4-2.2 3.3-0.8 1-3.8 1.8-5.1 2.4-3.6 1.6-7.4 3.3-10.8 5.3-13.5 8-26.2 17-37.5 27.9-8.4 8-15.2 16.7-21.9 26.2l-5 7.6c-0.4 0.8-1.3 2.8-1.9 3.2l-7.5 14.7c-3.1 6.8-5.5 14-7.7 21.1-12.7 41.5-8.5 85.4 12 123.7 21.4 39.9 58.9 68.2 102 81 42.7 12.8 89.9 6.7 128.9-14.5 38.8-21.1 67.1-56.7 79.6-98.9 11-37.2 8-78.9-8.1-114.2-2.5-5.5-5.3-10.9-8.6-16.1-1.6-2.7-3.8-5.4-5.2-8.2z"/>
</svg>