<svg class="w-32 h-32" xmlns="http://www.w3.org/2000/svg" viewBox="0 0 457 154" width="457" height="154">
    <title>Cleaning.gr Αρχική</title>
    <defs>
        <linearGradient id="g1" x2="1" gradientUnits="userSpaceOnUse" gradientTransform="matrix(-5.738,25.783,-14.714,-3.275,205.956,18.852)">
            <stop offset="0" stop-color="#fefefe"/>
            <stop offset=".989" stop-color="#007cb5"/>
        </linearGradient>
        <linearGradient id="g2" x2="1" gradientUnits="userSpaceOnUse" gradientTransform="matrix(19.34,18.365,-23.71,24.969,181.567,75.462)">
            <stop offset="0" stop-color="#eef8fc"/>
            <stop offset=".972" stop-color="#69c1ec"/>
        </linearGradient>
    </defs>
    <style>
        .s0 { fill: url(#g1) }
        .s1 { fill: url(#g2) }
        .s2 { fill: #403f40 }
        .s3 { fill: #007cb5;stroke: #007cb5;stroke-width: 1.6 }
    </style>
    <g id="Layer 1">
        <g id="&lt;Group&gt;">
            <path id="&lt;Path&gt;" class="s0" d="m225 58.1c0 0 9.4-2.6 13.9-15.4 4.7-13-4.9-17.5-10.8-15.9-5.6 1.6-7.9 8-3.9 15 4.4 7.9 2 15.1 0.8 16.3z"/>
            <path id="&lt;Path&gt;" class="s1" d="m230.7 28.2c0 0-3.5 4.9-1.7 10.9 1.7 6 3.6 11-2.6 17.3 0 0 4.4-7 0.1-15.6-4.1-8.1 0.4-13.2 4.2-12.6z"/>
        </g>
        <g id="&lt;Group&gt;">
            <path id="&lt;Compound Path&gt;" class="s2" d="m54.5 102.2q-2.3 2.7-5.3 4.7-3.1 2-6.9 3.1-3.8 1.1-8.6 1.1-6.8 0-12.1-2.5-5.4-2.5-9.1-7-3.7-4.5-5.6-10.6-1.9-6.2-1.9-13.5 0-7.7 2.1-13.9 2.1-6.2 5.9-10.6 3.8-4.5 9-6.8 5.3-2.4 11.7-2.4 5.1 0 8.9 1 3.8 1 6.7 3.1 3 2 5.1 4.8 2.2 2.9 3.8 6.8l-12.4 5.9q-2.2-4.3-4.8-6.5-2.5-2.3-7.3-2.3-3.5 0-6.2 1.5-2.6 1.5-4.4 4.2-1.8 2.8-2.7 6.6-0.8 3.9-0.8 8.6 0 4.5 0.8 8.4 0.9 3.9 2.7 6.6 1.8 2.8 4.4 4.3 2.7 1.5 6.3 1.5 4.7 0 7.5-2.2 2.9-2.1 5.5-6.4l11.7 6.7q-1.7 3.1-4 5.8z"/>
            <path id="&lt;Compound Path&gt;" class="s2" d="m61.7 110.1v-62.1l13-5.9v68z"/>
            <path id="&lt;Compound Path&gt;" fill-rule="evenodd" class="s2" d="m111.2 61.9q3.9 1.8 6.6 5.2 2.7 3.4 4.1 8.1 1.4 4.8 1.4 10.6 0 1.3 0 2.2-0.1 0.9-0.2 1.7h-30.5q0.6 5.6 3.5 8.1 2.9 2.6 6.8 2.6 3.2 0 5.9-0.9 2.8-1 5.8-2.8l6 8.3q-3.9 2.9-8.3 4.5-4.4 1.6-10 1.6-5 0-9-1.8-4.1-1.7-7-5-2.9-3.4-4.5-8.1-1.6-4.7-1.5-10.5 0-6.3 1.6-11.1 1.6-4.8 4.5-8 2.9-3.2 7-4.9 4-1.6 8.8-1.6 5.1 0 9 1.8zm-2.7 11.5q-2.1-2.8-6.9-2.8-3.9 0-6.2 2.6-2.2 2.6-2.7 7.3h18.4q-0.5-4.4-2.6-7.1z"/>
            <path id="&lt;Compound Path&gt;" fill-rule="evenodd" class="s2" d="m154.8 110.1v-4.1q-2.4 2.1-5.7 3.6-3.2 1.5-6.9 1.5-3.3 0-6.3-1-3-1-5.2-3-2.3-2.1-3.6-5.2-1.4-3.2-1.4-7.5 0-4 1.4-7 1.4-3 3.9-5 2.5-2 5.9-2.9 3.4-1 7.4-1 3.4 0 6 0.5 2.5 0.5 4.5 1.5v-3q0-7.1-8-7.1-3.8 0-6.9 0.7-3.1 0.8-6.3 2.6l-4-9.1q4-2.2 8.5-3.3 4.5-1.2 10.4-1.2 9.3 0 14.2 4.4 4.8 4.4 4.8 12.9v32.7zm0-20.4q-1.7-0.8-3.8-1.3-2.2-0.5-5.3-0.5-3.7 0-5.7 1.6-2 1.7-2 4.6 0 3 1.8 4.9 1.8 1.9 5.5 1.9 3 0 5.6-1.4 2.5-1.4 3.9-3z"/>
            <path id="&lt;Compound Path&gt;" class="s2" d="m202.7 110.1v-27.7q0-6.1-2.1-8.4-2.2-2.4-5.8-2.4-3.9 0-5.9 2.4-2.1 2.4-2.1 7.7v28.4h-13v-49h13v4q2.2-2.2 5.2-3.6 3-1.4 7.2-1.4 8.4 0 12.5 5.3 4.2 5.3 4.2 15.7v29z"/>
            <path id="&lt;Compound Path&gt;" class="s2" d="m222.8 110.1v-49h13.1v49z"/>
            <path id="&lt;Compound Path&gt;" class="s2" d="m272.5 110.1v-27.7q0-6.1-2.1-8.4-2.1-2.4-5.8-2.4-3.8 0-5.9 2.4-2.1 2.4-2.1 7.7v28.4h-13v-49h13v4q2.2-2.2 5.2-3.6 3.1-1.4 7.2-1.4 8.4 0 12.6 5.3 4.1 5.3 4.1 15.7v29z"/>
            <path id="&lt;Compound Path&gt;" fill-rule="evenodd" class="s2" d="m332.3 114.3q-1.4 4.3-4.2 7.1-2.9 2.9-7.6 4.5-4.7 1.6-11.3 2.2l-4.7-8.5q4.8-0.5 7.9-1.3 3.1-0.9 4.8-2.3 1.8-1.4 2.5-3.6 0.6-2.1 0.6-5.3v-1.3q-2.6 2.1-5.4 3.6-2.8 1.5-6.7 1.5-3.6 0-6.9-1.4-3.2-1.4-5.6-4.5-2.3-3-3.7-7.9-1.3-4.9-1.3-11.8 0-6.5 1.3-11.2 1.4-4.8 3.8-7.8 2.4-3.1 5.7-4.7 3.3-1.5 7.3-1.5 3.7 0 6.6 1.5 2.9 1.6 4.9 3.4v-3.9h13.3v42.9q0 6-1.4 10.3zm-11.8-38.4q-1.5-1.6-3.7-3.1-2.3-1.4-5.1-1.4-3.9 0-5.9 3.1-2 3-2 10.3 0 8.3 2.1 11.7 2.1 3.3 6.1 3.3 2.6 0 4.8-1.3 2.1-1.3 3.7-3.1z"/>
        </g>
        <g id="&lt;Group&gt;">
            <path id="&lt;Path&gt;" class="s3" d="m384.3 119.8q3-1.8 4.5-3.9 1.4-2 1.5-4.5 0-2.5-0.9-5.9l-0.4-1.4q-2.1 3.1-4.7 5.5-2.5 2.5-6.7 3.7-3.8 1.1-7.7 0.5-3.3-0.4-6.4-2.4c4.2 4.6 9.3 8.5 15 11.3q3.5-1.5 5.8-2.9z"/>
            <path id="&lt;Path&gt;" class="s3" d="m378.3 100.3q2.7-0.8 4.6-2.8 1.9-2 3.1-4.4l-5.9-20.8q-2.1-1.3-4.9-2.1-2.8-0.9-5.8 0-4.2 1.1-5.4 5-1.2 3.9 1 11.6 2.5 8.9 5.7 11.8 3.3 2.9 7.6 1.7z"/>
            <path id="&lt;Path&gt;" class="s3" d="m438 44.2l0.4 11.1q-2.1-0.9-4.2-1.3-2.2-0.3-4.8 0.4-4.1 1.2-5.6 4.4-1.5 3.2 0.1 9l8.2 29-14 4-14.8-52 14-4 1.2 4.4q1.4-3 3.9-5.4 2.4-2.3 6.1-3.4 2.6-0.7 4.7-0.8c-8.8-7.4-20.1-11.9-32.5-11.9-24.5 0-44.8 17.5-49.2 40.7 1-2.2 2.4-4 4.2-5.6q3-2.6 7.2-3.8 4-1.1 7.5-0.3 3.5 0.7 6.3 2.1l-1.2-4.2 14.1-4 12.9 45.7q1.8 6.3 1.7 11.3-0.1 4.9-2.3 8.8-2.2 3.9-6.7 7.1-1.2 0.9-2.7 1.7 4 0.7 8.2 0.7c27.7 0 50.2-22.4 50.2-50.1 0-12.9-4.9-24.7-12.9-33.6z"/>
        </g>
    </g>
</svg>
